# xmcd
#
# Track frame offsets: 
#        150
#        20647
#        39935
#        57847
#        79560
#        100782
#        122077
#        143292
#        161835
#        182580
#
# Disc length: 2666 seconds
#
# Revision: 1
# Processed by: cddbd v1.5.2PL0 Copyright (c) Steve Scherf et al.
# Submitted via: ExactAudioCopyFreeDBPlugin 1.0
#
DISCID=720a680a
DTITLE=王馨平 - 受害者
DYEAR=1996
DGENRE=Country
TTITLE0=受害者
TTITLE1=網
TTITLE2=愛殤
TTITLE3=這一夜
TTITLE4=不一定要說再見
TTITLE5=逃
TTITLE6=往事
TTITLE7=蝶
TTITLE8=近情情怯
TTITLE9=希望
EXTD=
EXTT0=
EXTT1=
EXTT2=
EXTT3=
EXTT4=
EXTT5=
EXTT6=
EXTT7=
EXTT8=
EXTT9=
PLAYORDER=
